; NON-PLATED HOLES START AT T1
; THROUGH (PLATED) HOLES START AT T100
M48
INCH
T1C0.064972
T2C0.064944
T3C0.125984
T100C0.100000
T101C0.038000
T102C0.031496
T103C0.051083
T104C0.039370
T105C0.031555
T106C0.015748
T107C0.051056
T108C0.035000
T109C0.027559
T110C0.040000
%
T1
X016033Y015508
X013034Y015508
X012034Y015508
X014033Y015508
X015033Y015508
X011034Y015508
T2
X014876Y001609
X012876Y001609
X011876Y001609
X013876Y001609
T3
X038126Y001359
X005876Y001359
X038126Y038359
X001126Y034609
T100
X003176Y001709
X001976Y003609
X004376Y003609
T101
X007376Y021359
T102
X018307Y025609
T103
X016033Y015508
X013034Y015508
X012034Y015508
X014033Y015508
X015033Y015508
X011034Y015508
T104
X032126Y033609
X032126Y037609
X006376Y012859
X032126Y031609
X032126Y032609
X032126Y034609
X032126Y029609
X004376Y012859
X005376Y012859
X032126Y036609
X032126Y030609
X032126Y035609
X032126Y028609
T105
X016376Y025609
T106
X023626Y020109
X030126Y027859
X028376Y024359
X021126Y019359
X015376Y017359
X019376Y011859
X033126Y020359
X029126Y024359
X017126Y013109
X027126Y022859
X020626Y020109
X010376Y029859
X013376Y019359
X014126Y018859
X031626Y021609
X032280Y017890
X032376Y015359
X031376Y025109
X031376Y024359
X027626Y009359
X005626Y014859
X025626Y012109
X024126Y022609
X018376Y017359
X023376Y026359
X029376Y010859
X026626Y007609
X014876Y027609
X018876Y012609
X005626Y016609
X017376Y011859
X017126Y016359
T107
X014876Y001609
X012876Y001609
X011876Y001609
X013876Y001609
T108
X035126Y009109
X035126Y007109
X028126Y016609
X025067Y025631
X016126Y018609
X025126Y021609
X028126Y007609
X022126Y021609
X027626Y025631
X026126Y021609
X028126Y021609
X019126Y021609
X023126Y021609
X017126Y018609
X024126Y018609
X017126Y021609
X031126Y009109
X021126Y018609
X029126Y018609
X020126Y021609
X033126Y023609
X024126Y021609
X028126Y018609
X022126Y018609
X010126Y017359
X028126Y012609
X027126Y016609
X027126Y018609
X021126Y021609
X035126Y011359
X018126Y018609
X035126Y013609
X029126Y023609
X031126Y007109
X029126Y021609
X016126Y021609
X019126Y018609
X027126Y021609
X031126Y013609
X027126Y012609
X020126Y018609
X014126Y017359
X025067Y023859
X027626Y023859
X023126Y018609
X031126Y011359
X026126Y018609
X018126Y021609
X028126Y003609
X025126Y018609
T109
X023626Y015109
X003126Y016609
X022626Y015109
X021876Y024359
X020876Y024359
X022126Y027609
X035876Y023859
X004126Y016609
X020126Y028609
X034876Y023859
X007376Y008109
X022126Y028609
X020126Y027609
X008376Y008109
T110
X037126Y008859
X020126Y010609
X005126Y026859
X003126Y026859
X035126Y033859
X036126Y036859
X024876Y010609
X035126Y027609
X037126Y033859
X029876Y004609
X037126Y030609
X037126Y027609
X035126Y036859
X037376Y017359
X036126Y027609
X036126Y004359
X022376Y002859
X037126Y014359
X008126Y026859
X024876Y007109
X036126Y014359
X036126Y033859
X007626Y003859
X021126Y007109
X008626Y003859
X010376Y021359
X023876Y010609
X036126Y030609
X004126Y026859
X024376Y002859
X029876Y005609
X037126Y004359
X029876Y003609
X021376Y002859
X035126Y030609
X006126Y026859
X037376Y020359
X037126Y036859
X037376Y019359
X021126Y010609
X023876Y007109
X036126Y008859
X020126Y007109
X037376Y021359
X007126Y026859
X037126Y011609
X037376Y018359
X010376Y020359
X036126Y011609
X023376Y002859
T00
M30
